<svg xmlns="http://www.w3.org/2000/svg" viewBox="0 0 512 512">
  <defs>
    <linearGradient id="bg" x1="0%" y1="0%" x2="100%" y2="100%">
      <stop offset="0%" stop-color="#10b981"/>
      <stop offset="100%" stop-color="#059669"/>
    </linearGradient>
  </defs>
  <rect width="512" height="512" rx="96" fill="url(#bg)"/>
  <!-- Map pin -->
  <path d="M256 96 C 180 96 130 156 130 220 C 130 320 256 432 256 432 C 256 432 382 320 382 220 C 382 156 332 96 256 96 Z"
        fill="#ffffff" opacity="0.15"/>
  <!-- Runner figure (simplified) -->
  <g fill="#ffffff" transform="translate(180, 140)">
    <!-- head -->
    <circle cx="105" cy="35" r="24"/>
    <!-- body / arms / legs -->
    <path d="M 100 70
             L 70 130
             L 35 145
             L 50 165
             L 90 150
             L 95 200
             L 60 245
             L 80 260
             L 115 220
             L 130 175
             L 165 200
             L 175 250
             L 195 245
             L 185 195
             L 165 145
             L 130 110
             L 145 75
             Z"
          stroke="#ffffff" stroke-width="6" stroke-linejoin="round"/>
  </g>
</svg>
