<svg xmlns="http://www.w3.org/2000/svg" viewBox="0 0 512 512" width="512" height="512">
  <rect width="512" height="512" fill="#0f172a"/>
  <path d="M70 360 Q160 250 256 320 T452 250" fill="none" stroke="#ffffff" stroke-width="14" stroke-linecap="round" stroke-dasharray="6 26" opacity="0.45"/>
  <path d="M256 78 C172 78 104 146 104 230 C104 328 256 446 256 446 C256 446 408 328 408 230 C408 146 340 78 256 78 Z" fill="none" stroke="#10b981" stroke-width="26"/>
  <g transform="translate(180 140) scale(6.4)" fill="#ffffff"><path d="M13.49 5.48c1.1 0 2-.9 2-2s-.9-2-2-2-2 .9-2 2 .9 2 2 2zm-3.6 13.9l1-4.4 2.1 2v6h2v-7.5l-2.1-2 .6-3c1.3 1.5 3.3 2.5 5.5 2.5v-2c-1.9 0-3.5-1-4.5-2.5l-1-1.6c-.4-.6-1-1-1.7-1-.3 0-.5.1-.8.1l-5.2 2.2v4.7h2v-3.4l1.8-.7-1.6 8.1-4.9-1-.4 2 7 1.4z"/></g>
</svg>
